<?xml version="1.0" encoding="utf-8"?>
<!-- Generator: Adobe Illustrator 16.0.0, SVG Export Plug-In . SVG Version: 6.00 Build 0)  -->
<!DOCTYPE svg PUBLIC "-//W3C//DTD SVG 1.1//EN" "http://www.w3.org/Graphics/SVG/1.1/DTD/svg11.dtd">
<svg version="1.1" id="Layer_1" xmlns="http://www.w3.org/2000/svg" xmlns:xlink="http://www.w3.org/1999/xlink" x="0px" y="0px"
	 width="466.396px" height="279.628px" viewBox="0 0 466.396 279.628" enable-background="new 0 0 466.396 279.628"
	 xml:space="preserve">
<g>
	<g id="Emblem_38_" transform="matrix(0.433077,0,0,0.433077,-147.567,-1.8842)">
		<path fill="#FFFFFF" d="M849.4,264.061v-19.794h59.291v-19.798h19.701v-19.796h19.796v19.796h-19.704v19.798h-19.695v19.794H849.4
			L849.4,264.061z M849.301,224.469v19.798h-19.794v-19.798h-19.636v-19.796h-19.765v-19.794h-19.503v-19.798h19.796v19.798H809.9
			v19.794h19.765v19.796H849.301L849.301,224.469z M948.223,184.879h19.794v19.794h-19.794V184.879z M987.982,165.081v19.798
			h-19.794v-19.798h19.632v-19.796h-0.032v-19.796h-0.034v-19.796h0.099V85.894h0.068V66.1h19.794v19.794h-0.063v19.798h-0.099
			v19.796h0.032v19.796h0.032v19.796H987.982z M810.015,184.622V85.824h19.762V66.062h19.758v-19.76h59.282v19.76h19.76v19.762
			h19.758v98.798h-39.518v-39.52h-59.282v39.52H810.015z M770.533,145.284h0.031v19.796h-19.796v-19.796h-0.032v-19.796h-0.034
			V105.69h0.097V85.894h0.068V66.1h19.638V46.302H790.3V66.1h-19.638v19.794h-0.063v19.796H770.5v19.798h0.034V145.284z
			 M849.535,125.344h59.282v-39.52h-19.76V66.062h-19.76v19.762h-19.762V125.344L849.535,125.344z M790.3,46.304h19.798V66.1H790.3
			V46.304z M948.421,66.1V46.302h39.466V66.1H948.421z M810.164,46.304V26.506h39.466V6.712h59.391v19.794H849.63v19.798H810.164z
			 M909.021,46.304V26.506h39.466v19.798H909.021z"/>
	</g>
	<g id="Awesome_Shield_3_" transform="matrix(2.00922,0,0,2.00922,-980.675,-450.01)">
		<g>
			<path fill="#FFFFFF" d="M497.115,299.087v-2.099h12.592v4.197h4.198v4.197h4.197v20.988h-8.395v-8.395h-12.592v8.395h-8.395
				v-20.988h4.197v-4.197h4.198V299.087z M505.511,303.284v-2.099h-4.198v4.197h-4.197v8.395h12.592v-8.395h-4.197V303.284z"/>
			<path fill="#FFFFFF" d="M522.301,311.679v-14.691h8.395v12.592h4.197v-4.198h4.198v4.198h4.197v-12.592h8.394v29.383h-8.394
				v-4.198h-4.197v-4.197h-4.198v4.197h-4.197v4.198h-8.395V311.679z"/>
			<path fill="#FFFFFF" d="M555.88,311.679v-14.691h29.382v4.197h-20.987v8.395h16.79v4.197h-16.79v8.395h20.987v4.198H555.88
				V311.679z"/>
			<path fill="#FFFFFF" d="M593.658,299.087v-2.099h16.789v4.197h4.198v4.197h-8.394v-4.197h-8.396v8.395h16.79v4.197h4.198v8.395
				h-4.198v4.198h-20.987v-4.198h-4.197v-4.197h8.394v4.197h12.592v-8.395h-16.789v-4.197h-4.197v-8.395h4.197V299.087z"/>
			<path fill="#FFFFFF" d="M627.237,299.087v-2.099h20.988v4.197h4.197v20.987h-4.197v4.198h-20.988v-4.198h-4.197v-20.987h4.197
				V299.087z M644.027,311.679v-10.494h-12.592v20.987h12.592V311.679z"/>
			<path fill="#FFFFFF" d="M656.62,311.679v-14.691h8.395v4.197h4.196v4.197h4.198v-4.197h4.198v-4.197h8.394v29.383h-8.394v-12.593
				h-4.198v4.197h-4.198v-4.197h-4.196v12.593h-8.395V311.679z"/>
			<path fill="#FFFFFF" d="M690.199,311.679v-14.691h29.383v4.197h-20.987v8.395h16.79v4.197h-16.79v8.395h20.987v4.198h-29.383
				V311.679z"/>
		</g>
		<g>
			<g transform="matrix(1,0,0,1,-4.09273e-12,-46)">
				<path fill="#FFFFFF" d="M509.707,381.353v-2.099h16.791v4.197h4.197v4.198h-8.395v-4.198h-8.395v8.395h16.79v4.198h4.197v8.395
					h-4.197v4.197h-20.988v-4.197h-4.196v-4.198h8.395v4.198h12.592v-8.395h-16.791v-4.198h-4.196v-8.395h4.196V381.353z"/>
			</g>
			<g transform="matrix(1,0,0,1,-4.09273e-12,-46)">
				<path fill="#FFFFFF" d="M539.09,393.945v-14.691h8.395v12.592h12.592v-12.592h8.395v29.382h-8.395v-12.592h-12.592v12.592
					h-8.395V393.945z"/>
			</g>
			<g transform="matrix(1,0,0,1,-4.09273e-12,-46)">
				<path fill="#FFFFFF" d="M576.867,381.353v-2.099h25.185v4.197h-8.395v20.988h8.395v4.197h-25.185v-4.197h8.395v-20.988h-8.395
					V381.353z"/>
			</g>
			<g transform="matrix(1,0,0,1,-4.09273e-12,-46)">
				<path fill="#FFFFFF" d="M606.25,393.945v-14.691h29.382v4.197h-20.988v8.395h16.791v4.198h-16.791v8.395h20.988v4.197H606.25
					V393.945z"/>
			</g>
			<g transform="matrix(1,0,0,1,-4.09273e-12,-46)">
				<path fill="#FFFFFF" d="M644.027,393.945v-14.691h8.395v25.185h16.79v4.197h-25.185V393.945z"/>
			</g>
			<g transform="matrix(1,0,0,1,-4.09273e-12,-46)">
				<path fill="#FFFFFF" d="M673.411,393.945v-14.691h20.987v4.197h4.197v4.198h4.196v12.592h-4.196v4.198h-4.197v4.197h-20.987
					V393.945z M690.199,385.55v-2.099h-8.394v20.988h8.394v-4.198h4.198v-12.592h-4.198V385.55z"/>
			</g>
		</g>
	</g>
</g>
</svg>
